<?xml version="1.0" encoding="UTF-8" standalone="no"?> <!-- Created with Vectornator for iOS (http://vectornator.io/) --><!DOCTYPE svg PUBLIC "-//W3C//DTD SVG 1.1//EN" "http://www.w3.org/Graphics/SVG/1.1/DTD/svg11.dtd">
<svg height="100%" style="fill-rule:nonzero;clip-rule:evenodd;stroke-linecap:round;stroke-linejoin:round;" xmlns:xlink="http://www.w3.org/1999/xlink" xmlns="http://www.w3.org/2000/svg" xml:space="preserve" width="100%" xmlns:vectornator="http://vectornator.io" version="1.1" viewBox="0 0 1280 640">
<metadata>
<vectornator:setting key="DimensionsVisible" value="1"/>
<vectornator:setting key="PencilOnly" value="0"/>
<vectornator:setting key="SnapToPoints" value="0"/>
<vectornator:setting key="OutlineMode" value="0"/>
<vectornator:setting key="CMYKEnabledKey" value="0"/>
<vectornator:setting key="RulersVisible" value="1"/>
<vectornator:setting key="SnapToEdges" value="0"/>
<vectornator:setting key="GuidesVisible" value="1"/>
<vectornator:setting key="DisplayWhiteBackground" value="0"/>
<vectornator:setting key="doHistoryDisabled" value="0"/>
<vectornator:setting key="SnapToGuides" value="1"/>
<vectornator:setting key="TimeLapseWatermarkDisabled" value="0"/>
<vectornator:setting key="Units" value="Pixels"/>
<vectornator:setting key="DynamicGuides" value="0"/>
<vectornator:setting key="IsolateActiveLayer" value="0"/>
<vectornator:setting key="SnapToGrid" value="0"/>
</metadata>
<defs/>
<g id="Layer 1" vectornator:layerName="Layer 1">
<g opacity="1">
<path stroke="#000000" vectornator:shadowColor="#000000" vectornator:shadowOffset="10" stroke-width="4" fill="#fade70" stroke-linecap="butt" vectornator:shadowAngle="1.5708" stroke-linejoin="round" opacity="1" vectornator:shadowRadius="10" d="M216.837+365.198C215.476+361.341+214.908+357.54+215.135+353.797C215.362+350.053+216.326+346.65+218.028+343.587C219.73+340.524+222.169+338.141+225.345+336.44C228.522+334.738+232.379+334.114+236.916+334.568C239.412+334.795+241.681+335.476+243.723+336.61C245.765+337.744+247.637+339.106+249.339+340.694C251.04+342.282+252.742+343.984+254.443+345.799C256.145+347.614+257.904+349.202+259.719+350.564C263.576+353.513+267.66+355.669+271.971+357.03C276.281+358.391+280.819+359.412+285.584+360.093C288.76+360.093+291.313+359.299+293.241+357.71C295.17+356.122+296.474+354.194+297.155+351.925C297.836+349.656+298.006+347.217+297.666+344.608C297.325+341.999+296.474+339.9+295.113+338.312C291.256+334.455+286.548+331.959+280.989+330.824C275.431+329.69+270.269+328.329+265.504+326.74C258.698+324.471+252.004+321.579+245.425+318.062C238.845+314.545+233.513+309.724+229.429+303.598C225.118+297.245+222.566+290.495+221.772+283.348C220.978+276.201+221.545+269.224+223.473+262.418C225.402+255.611+228.635+249.372+233.173+243.699C237.711+238.027+243.156+233.376+249.509+229.746C254.273+227.023+259.492+225.265+265.164+224.471C270.836+223.677+276.565+223.506+282.351+223.96C288.136+224.414+293.865+225.492+299.537+227.193C305.21+228.895+310.428+230.767+315.193+232.809C320.638+235.305+324.722+238.821+327.445+243.359C330.167+247.897+331.472+252.491+331.358+257.143C331.245+261.794+329.657+265.821+326.594+269.224C323.531+272.628+319.05+274.329+313.151+274.329C309.52+274.329+306.231+273.705+303.281+272.457C300.332+271.21+297.269+270.018+294.092+268.884C290.008+267.296+285.584+266.218+280.819+265.651C276.055+265.084+272.197+265.367+269.248+266.502C268.34+266.729+267.319+267.466+266.185+268.714C265.05+269.962+264.2+271.493+263.632+273.308C263.065+275.123+262.952+276.938+263.292+278.754C263.632+280.569+264.824+282.043+266.866+283.178C272.311+286.127+278.097+288.396+284.222+289.985C290.348+291.573+296.361+293.388+302.26+295.43C308.159+297.472+313.661+300.081+318.766+303.257C323.871+306.434+328.125+310.972+331.529+316.871C336.52+325.492+339.073+334.511+339.186+343.927C339.299+353.343+337.428+362.135+333.571+370.303C329.713+378.471+324.041+385.448+316.554+391.233C309.067+397.019+300.332+400.479+290.348+401.613C283.315+402.294+276.395+401.897+269.588+400.422C262.782+398.947+256.202+396.565+249.849+393.275C243.496+389.985+237.597+386.071+232.152+381.534C226.706+376.996+221.942+372.231+217.858+367.24L216.837+365.198Z" stroke-opacity="0.954095" vectornator:shadowOpacity="0"/>
<path stroke="#000000" vectornator:shadowColor="#000000" vectornator:shadowOffset="10" stroke-width="4" fill="#fade70" stroke-linecap="butt" vectornator:shadowAngle="1.5708" stroke-linejoin="round" opacity="1" vectornator:shadowRadius="10" d="M412.344+366.899C414.84+369.168+416.939+372.061+418.64+375.578C420.342+379.095+421.25+382.611+421.363+386.128C421.477+389.645+420.682+392.935+418.981+395.998C417.279+399.061+414.273+401.386+409.962+402.975C406.559+404.109+402.815+404.336+398.731+403.655C394.647+402.975+390.62+401.613+386.649+399.571C382.679+397.529+379.162+395.09+376.099+392.254C373.036+389.418+370.824+386.298+369.463+382.895C369.009+381.761+368.668+380.456+368.442+378.981C368.215+377.506+368.101+376.202+368.101+375.067L368.101+186.183C368.101+180.965+370.086+176.541+374.057+172.91C378.028+169.28+382.395+167.125+387.16+166.444C389.429+166.217+391.868+166.558+394.477+167.465C397.086+168.373+399.525+169.677+401.794+171.379C404.063+173.081+405.935+175.066+407.409+177.335C408.884+179.604+409.622+181.986+409.622+184.482C409.622+190.381+409.622+198.208+409.622+207.965C409.622+217.721+409.678+228.385+409.792+239.956C409.905+251.527+409.962+263.495+409.962+275.861C409.962+288.226+409.905+300.081+409.792+311.425C409.678+322.77+409.622+333.15+409.622+342.566C409.622+351.982+409.508+359.526+409.281+365.198L412.344+366.899Z" stroke-opacity="0.954095" vectornator:shadowOpacity="0"/>
<path stroke="#000000" vectornator:shadowColor="#000000" vectornator:shadowOffset="10" stroke-width="4" fill="#fade70" stroke-linecap="butt" vectornator:shadowAngle="1.5708" stroke-linejoin="round" opacity="1" vectornator:shadowRadius="10" d="M586.411+373.025C588.226+379.605+587.886+385.05+585.39+389.361C582.894+393.672+579.434+396.565+575.01+398.04C570.585+399.515+565.764+399.344+560.546+397.529C555.327+395.714+550.789+392.084+546.932+386.639C540.58+391.403+534.397+394.75+528.384+396.678C522.372+398.607+515.508+399.685+507.794+399.912C496.223+400.365+485.9+399.061+476.824+395.998C467.749+392.935+460.091+388.34+453.852+382.214C447.612+376.088+443.018+368.431+440.068+359.242C437.119+350.053+436.098+339.446+437.005+327.421C437.459+322.429+438.31+317.551+439.558+312.787C440.806+308.022+442.224+303.371+443.812+298.833C445.627+293.842+448.18+288.51+451.469+282.838C454.759+277.165+458.106+272.287+461.509+268.203C473.761+253.229+489.076+242.452+507.454+235.872C510.63+234.737+514.941+233.716+520.387+232.809C525.832+231.901+531.334+231.504+536.893+231.618C542.451+231.731+547.783+232.469+552.888+233.83C557.993+235.191+561.794+237.573+564.289+240.977C566.331+243.699+567.806+246.082+568.714+248.124C569.621+250.166+570.132+252.321+570.245+254.59C570.359+256.859+570.359+259.298+570.245+261.907C570.132+264.516+570.075+267.75+570.075+271.607C570.075+277.959+570.018+284.142+569.905+290.155C569.791+296.167+569.848+302.236+570.075+308.362C570.075+310.404+570.075+313.07+570.075+316.36C570.075+319.65+570.188+323.11+570.415+326.74C570.642+330.371+570.926+333.831+571.266+337.12C571.606+340.41+572.117+343.076+572.798+345.118L586.411+373.025ZM514.261+357.71C516.756+356.122+519.592+354.364+522.769+352.435C525.945+350.507+528.781+348.295+531.277+345.799C529.235+333.774+528.044+321.749+527.704+309.724C527.363+297.699+527.42+285.56+527.874+273.308C517.664+275.123+508.475+279.548+500.307+286.581C492.139+293.615+486.467+301.896+483.29+311.425C481.929+315.283+480.795+319.253+479.887+323.337C478.98+327.421+478.639+331.392+478.866+335.249C479.093+340.467+480.454+344.835+482.95+348.351C485.446+351.868+488.452+354.534+491.969+356.349C495.486+358.164+499.229+359.185+503.2+359.412C507.17+359.639+510.857+359.072+514.261+357.71Z" stroke-opacity="0.954095" vectornator:shadowOpacity="0"/>
<path stroke="#000000" vectornator:shadowColor="#000000" vectornator:shadowOffset="10" stroke-width="4" fill="#fade70" stroke-linecap="butt" vectornator:shadowAngle="1.5708" stroke-linejoin="round" opacity="1" vectornator:shadowRadius="10" d="M690.369+345.459C696.041+341.828+701.43+340.24+706.535+340.694C711.64+341.148+715.837+342.906+719.127+345.969C722.417+349.032+724.232+353.116+724.572+358.221C724.913+363.326+723.154+368.715+719.297+374.387C716.801+378.244+713.228+381.761+708.577+384.937C703.926+388.113+699.445+390.609+695.134+392.424C685.151+396.962+675.054+399.004+664.844+398.55C654.634+398.096+645.162+395.601+636.427+391.063C627.691+386.525+620.147+380.229+613.794+372.175C607.442+364.12+603.131+354.761+600.862+344.097C596.324+323.677+597.232+304.052+603.585+285.22C606.08+278.413+609.087+271.834+612.603+265.481C616.12+259.128+620.374+253.342+625.366+248.124C630.357+242.905+635.916+238.311+642.042+234.34C648.168+230.37+654.861+227.704+662.122+226.343C667.113+225.435+673.466+225.492+681.18+226.513C688.894+227.534+696.438+229.519+703.812+232.469C711.186+235.418+717.652+239.275+723.211+244.04C728.77+248.804+731.89+254.477+732.57+261.056C733.024+264.687+732.57+268.033+731.209+271.096C729.848+274.159+727.919+276.712+725.423+278.754C722.927+280.796+720.035+282.214+716.745+283.008C713.455+283.802+710.108+283.745+706.705+282.838C702.621+281.703+699.388+280.172+697.006+278.243C694.623+276.315+691.503+273.762+687.646+270.586C685.831+270.132+684.13+269.394+682.541+268.373C680.953+267.352+679.252+266.955+677.436+267.182L668.248+268.203C666.659+269.111+665.185+269.905+663.823+270.586C662.462+271.266+661.101+271.947+659.739+272.628C652.025+280.342+646.353+288.907+642.723+298.323C639.092+307.738+638.185+317.892+640+328.782C641.134+335.816+643.347+341.601+646.636+346.139C649.926+350.677+653.783+353.797+658.208+355.498C662.632+357.2+667.51+357.37+672.842+356.009C678.174+354.648+683.449+351.585+688.667+346.82L690.369+345.459Z" stroke-opacity="0.954095" vectornator:shadowOpacity="0"/>
<path stroke="#000000" vectornator:shadowColor="#000000" vectornator:shadowOffset="10" stroke-width="4" fill="#fade70" stroke-linecap="butt" vectornator:shadowAngle="1.5708" stroke-linejoin="round" opacity="1" vectornator:shadowRadius="10" d="M794.327+377.109C792.966+384.597+790.016+389.985+785.479+393.275C780.941+396.565+776.233+398.096+771.355+397.87C766.477+397.643+762.166+395.657+758.422+391.914C754.679+388.17+752.807+383.008+752.807+376.429L752.807+182.44C752.807+179.036+753.771+175.917+755.7+173.081C757.628+170.245+760.067+167.919+763.017+166.104C765.966+164.289+769.199+163.098+772.716+162.53C776.233+161.963+779.466+162.077+782.416+162.871C785.365+163.665+787.918+165.366+790.073+167.976C792.229+170.585+793.42+174.158+793.647+178.696C794.327+196.393+794.668+212.276+794.668+226.343C794.668+240.41+794.554+254.59+794.327+268.884C799.546+265.027+804.481+261+809.132+256.802C813.783+252.605+818.377+248.237+822.915+243.699C826.999+239.389+830.97+234.567+834.827+229.235C838.684+223.903+843.562+220.217+849.461+218.175C853.772+216.813+857.799+216.586+861.543+217.494C865.286+218.401+868.463+220.16+871.072+222.769C873.681+225.378+875.44+228.555+876.347+232.298C877.255+236.042+877.028+240.069+875.667+244.38C874.532+247.557+871.98+251.527+868.009+256.292C864.039+261.056+859.614+265.934+854.736+270.926C849.858+275.917+845.037+280.512+840.272+284.709C835.507+288.907+831.65+292.14+828.701+294.409C836.642+303.031+844.469+311.766+852.184+320.614C859.898+329.463+867.725+338.312+875.667+347.16C879.07+351.017+882.303+354.477+885.366+357.54C888.429+360.603+891.095+364.29+893.364+368.601C895.179+372.231+895.746+375.975+895.065+379.832C894.385+383.689+892.853+387.036+890.471+389.872C888.089+392.708+885.139+394.807+881.622+396.168C878.106+397.529+874.305+397.643+870.221+396.508C866.364+395.374+862.62+393.275+858.99+390.212C855.36+387.149+851.9+383.803+848.61+380.172C845.32+376.542+842.201+372.799+839.251+368.941C836.302+365.084+833.579+361.794+831.083+359.072C824.957+352.038+818.888+345.062+812.875+338.141C806.863+331.221+800.68+324.471+794.327+317.892L794.327+377.109Z" stroke-opacity="0.954095" vectornator:shadowOpacity="0"/>
<path stroke="#000000" vectornator:shadowColor="#000000" vectornator:shadowOffset="10" stroke-width="4" fill="#fade70" stroke-linecap="butt" vectornator:shadowAngle="1.5708" stroke-linejoin="round" opacity="1" vectornator:shadowRadius="10" d="M1028.97+237.914C1031.7+233.376+1035.1+230.256+1039.18+228.555C1043.27+226.853+1047.29+226.456+1051.26+227.364C1055.24+228.271+1058.75+230.313+1061.81+233.49C1064.88+236.666+1066.75+240.863+1067.43+246.082C1067.88+249.939+1067.15+255.384+1065.22+262.418C1063.29+269.451+1060.91+276.712+1058.07+284.199C1055.24+291.686+1052.34+298.833+1049.39+305.64C1046.44+312.446+1044.06+317.778+1042.25+321.635C1034.53+338.652+1026.14+355.328+1017.06+371.664C1007.99+388+998.683+404.222+989.154+420.331C987.793+422.827+986.205+425.89+984.389+429.52C982.574+433.151+980.702+436.894+978.774+440.751C976.845+444.608+974.86+448.239+972.818+451.642C970.776+455.045+968.848+457.541+967.033+459.129C962.949+462.986+958.751+465.255+954.44+465.936C950.129+466.617+946.216+466.049+942.699+464.234C939.182+462.419+936.346+459.583+934.191+455.726C932.035+451.869+931.184+447.218+931.638+441.772C931.865+439.73+932.772+437.064+934.361+433.775C935.949+430.485+937.764+427.081+939.806+423.565C941.848+420.048+943.89+416.701+945.932+413.525C947.974+410.348+949.562+407.739+950.697+405.697C955.234+398.21+959.602+390.723+963.799+383.235C967.997+375.748+972.251+368.261+976.562+360.773C961.587+348.295+948.598+334.398+937.594+319.083C926.59+303.768+918.138+286.922+912.239+268.544C911.105+265.367+909.97+262.191+908.836+259.014C907.701+255.838+907.361+252.548+907.815+249.145C908.269+245.288+909.346+241.828+911.048+238.765C912.75+235.702+914.962+233.206+917.684+231.277C920.407+229.349+923.527+228.271+927.044+228.044C930.56+227.817+934.134+228.611+937.764+230.427C940.714+232.015+943.039+234.227+944.741+237.063C946.442+239.899+947.861+242.962+948.995+246.252C950.129+249.542+951.094+252.888+951.888+256.292C952.682+259.695+953.646+262.758+954.781+265.481C963.856+287.943+977.583+307.115+995.961+322.997C1002.54+309.383+1008.44+295.713+1013.66+281.987C1018.88+268.26+1023.53+254.25+1027.61+239.956L1028.97+237.914Z" stroke-opacity="0.954095" vectornator:shadowOpacity="0"/>
</g>
</g>
</svg>
